<mxfile host="65bd71144e">
    <diagram name="Main Flow" id="main-flow">
        <mxGraphModel grid="1" page="1" gridSize="10" guides="1" tooltips="1" connect="1" arrows="1" fold="1" pageScale="1" pageWidth="1169" pageHeight="827" math="0" shadow="0">
            <root>
                <mxCell id="0"/>
                <mxCell id="1" parent="0"/>
                <mxCell id="start" value="🚀 User Starts Bot&#10;Input: /start command&#10;Output: Welcome message + auth check&#10;Description: Entry point for new users" style="ellipse;whiteSpace=wrap;html=1;fillColor=#2d5016;strokeColor=#4a7c59;fontColor=#ffffff;" parent="1" vertex="1">
                    <mxGeometry x="500" y="50" width="200" height="100" as="geometry"/>
                </mxCell>
                <mxCell id="auth-check" value="🔐 Authentication Check&#10;Input: telegram_user_id&#10;Output: user_exists (bool)&#10;Description: Verifies if user is registered in database" style="rhombus;whiteSpace=wrap;html=1;fillColor=#8b6914;strokeColor=#b8860b;fontColor=#ffffff;" parent="1" vertex="1">
                    <mxGeometry x="480" y="180" width="220" height="120" as="geometry"/>
                </mxCell>
                <mxCell id="auth-flow" value="📝 Authentication Flow&#10;Input: email, phone, user_details&#10;Output: user_created/updated&#10;Description: Handles user registration and login process" style="rounded=1;whiteSpace=wrap;html=1;fillColor=#4a2d5a;strokeColor=#6b4e7a;fontColor=#ffffff;" parent="1" vertex="1">
                    <mxGeometry x="720" y="200" width="200" height="80" as="geometry"/>
                </mxCell>
                <mxCell id="main-menu" value="📱 Main Menu (Buttons)&#10;Input: user_selection&#10;Output: menu_buttons + options&#10;Description: Displays interactive menu with analysis options" style="rounded=1;whiteSpace=wrap;html=1;fillColor=#2d4a6b;strokeColor=#4a6b8e;fontColor=#ffffff;" parent="1" vertex="1">
                    <mxGeometry x="480" y="320" width="220" height="80" as="geometry"/>
                </mxCell>
                <mxCell id="analysis-flow" value="📊 Analysis Flow&#10;Input: ticker_symbol&#10;Output: stock_analysis_data&#10;Description: Performs real-time stock analysis using database data" style="rounded=1;whiteSpace=wrap;html=1;fillColor=#8b2d2d;strokeColor=#b84a4a;fontColor=#ffffff;" parent="1" vertex="1">
                    <mxGeometry x="200" y="320" width="200" height="80" as="geometry"/>
                </mxCell>
                <mxCell id="settings-flow" value="⚙️ Settings Flow&#10;Input: user_preferences&#10;Output: settings_updated&#10;Description: Manages user settings and portfolio configuration" style="rounded=1;whiteSpace=wrap;html=1;fillColor=#8b5a2d;strokeColor=#b87a4a;fontColor=#ffffff;" parent="1" vertex="1">
                    <mxGeometry x="720" y="320" width="200" height="80" as="geometry"/>
                </mxCell>
                <mxCell id="payment-flow" value="💳 Payment Flow&#10;Input: payment_selection&#10;Output: plan_upgrade/status&#10;Description: Handles subscription plans and payment processing" style="rounded=1;whiteSpace=wrap;html=1;fillColor=#2d5016;strokeColor=#4a7c59;fontColor=#ffffff;" parent="1" vertex="1">
                    <mxGeometry x="480" y="420" width="220" height="80" as="geometry"/>
                </mxCell>
                <mxCell id="database" value="🗄️ Database Operations&#10;Input: query_parameters&#10;Output: data_records&#10;Description: Executes all database queries and data persistence" style="rounded=1;whiteSpace=wrap;html=1;fillColor=#404040;strokeColor=#666666;fontColor=#ffffff;" parent="1" vertex="1">
                    <mxGeometry x="480" y="520" width="220" height="80" as="geometry"/>
                </mxCell>
                <mxCell id="edge1" parent="1" source="start" target="auth-check" edge="1">
                    <mxGeometry relative="1" as="geometry"/>
                </mxCell>
                <mxCell id="edge2" parent="1" source="auth-check" target="auth-flow" edge="1">
                    <mxGeometry relative="1" as="geometry"/>
                </mxCell>
                <mxCell id="edge3" parent="1" source="auth-check" target="main-menu" edge="1">
                    <mxGeometry relative="1" as="geometry"/>
                </mxCell>
                <mxCell id="edge4" parent="1" source="main-menu" target="analysis-flow" edge="1">
                    <mxGeometry relative="1" as="geometry"/>
                </mxCell>
                <mxCell id="edge5" parent="1" source="main-menu" target="settings-flow" edge="1">
                    <mxGeometry relative="1" as="geometry"/>
                </mxCell>
                <mxCell id="edge6" parent="1" source="main-menu" target="payment-flow" edge="1">
                    <mxGeometry relative="1" as="geometry"/>
                </mxCell>
                <mxCell id="edge7" parent="1" source="analysis-flow" target="database" edge="1">
                    <mxGeometry relative="1" as="geometry"/>
                </mxCell>
                <mxCell id="edge8" parent="1" source="settings-flow" target="database" edge="1">
                    <mxGeometry relative="1" as="geometry"/>
                </mxCell>
                <mxCell id="edge9" parent="1" source="payment-flow" target="database" edge="1">
                    <mxGeometry relative="1" as="geometry"/>
                </mxCell>
            </root>
        </mxGraphModel>
    </diagram>
    <diagram name="Config Structure" id="config-structure">
        <mxGraphModel grid="1" page="1" gridSize="10" guides="1" tooltips="1" connect="1" arrows="1" fold="1" pageScale="1" pageWidth="1169" pageHeight="827" math="0" shadow="0">
            <root>
                <mxCell id="0"/>
                <mxCell id="1" parent="0"/>
                <mxCell id="config-folder" value="📁 config/" style="rounded=1;whiteSpace=wrap;html=1;fillColor=#2d4a6b;strokeColor=#4a6b8e;fontColor=#ffffff;" parent="1" vertex="1">
                    <mxGeometry x="500" y="50" width="150" height="60" as="geometry"/>
                </mxCell>
                <mxCell id="settings-py" value="settings.py&#10;Input: environment_variables&#10;Output: configuration_constants&#10;Description: Centralized configuration management for bot settings" style="rounded=1;whiteSpace=wrap;html=1;fillColor=#8b6914;strokeColor=#b8860b;fontColor=#ffffff;" parent="1" vertex="1">
                    <mxGeometry x="200" y="150" width="220" height="100" as="geometry"/>
                </mxCell>
                <mxCell id="messages-py" value="messages.py&#10;Input: message_key, language, params&#10;Output: formatted_message&#10;Description: Multi-language message system with dynamic formatting" style="rounded=1;whiteSpace=wrap;html=1;fillColor=#8b6914;strokeColor=#b8860b;fontColor=#ffffff;" parent="1" vertex="1">
                    <mxGeometry x="450" y="150" width="220" height="100" as="geometry"/>
                </mxCell>
                <mxCell id="plans-py" value="plans.py&#10;Input: plan_name, feature_name&#10;Output: plan_details, feature_access&#10;Description: Subscription plan management and feature access control" style="rounded=1;whiteSpace=wrap;html=1;fillColor=#8b6914;strokeColor=#b8860b;fontColor=#ffffff;" parent="1" vertex="1">
                    <mxGeometry x="700" y="150" width="220" height="100" as="geometry"/>
                </mxCell>
                <mxCell id="init-py" value="__init__.py&#10;Package marker" style="rounded=1;whiteSpace=wrap;html=1;fillColor=#404040;strokeColor=#666666;fontColor=#ffffff;" parent="1" vertex="1">
                    <mxGeometry x="500" y="320" width="150" height="60" as="geometry"/>
                </mxCell>
                <mxCell id="edge1" parent="1" source="config-folder" target="settings-py" edge="1">
                    <mxGeometry relative="1" as="geometry"/>
                </mxCell>
                <mxCell id="edge2" parent="1" source="config-folder" target="messages-py" edge="1">
                    <mxGeometry relative="1" as="geometry"/>
                </mxCell>
                <mxCell id="edge3" parent="1" source="config-folder" target="plans-py" edge="1">
                    <mxGeometry relative="1" as="geometry"/>
                </mxCell>
                <mxCell id="edge4" parent="1" source="config-folder" target="init-py" edge="1">
                    <mxGeometry relative="1" as="geometry"/>
                </mxCell>
            </root>
        </mxGraphModel>
    </diagram>
    <diagram name="Services Structure" id="services-structure">
        <mxGraphModel grid="1" page="1" gridSize="10" guides="1" tooltips="1" connect="1" arrows="1" fold="1" pageScale="1" pageWidth="1169" pageHeight="827" math="0" shadow="0">
            <root>
                <mxCell id="0"/>
                <mxCell id="1" parent="0"/>
                <mxCell id="services-folder" value="📁 services/" style="rounded=1;whiteSpace=wrap;html=1;fillColor=#2d4a6b;strokeColor=#4a6b8e;fontColor=#ffffff;" parent="1" vertex="1">
                    <mxGeometry x="500" y="50" width="150" height="60" as="geometry"/>
                </mxCell>
                <mxCell id="database-service" value="database_service.py&#10;Input: database_queries, parameters&#10;Output: data_records, operation_status&#10;Description: Centralized database operations and data persistence layer" style="rounded=1;whiteSpace=wrap;html=1;fillColor=#4a2d5a;strokeColor=#6b4e7a;fontColor=#ffffff;" parent="1" vertex="1">
                    <mxGeometry x="200" y="150" width="250" height="100" as="geometry"/>
                </mxCell>
                <mxCell id="init-py" value="__init__.py&#10;Package marker" style="rounded=1;whiteSpace=wrap;html=1;fillColor=#404040;strokeColor=#666666;fontColor=#ffffff;" parent="1" vertex="1">
                    <mxGeometry x="500" y="430" width="150" height="60" as="geometry"/>
                </mxCell>
                <mxCell id="user-methods" value="User Methods:&#10;Input: telegram_id, user_data&#10;Output: user_records, plan_info&#10;Description: Manages user authentication and profile operations" style="rounded=1;whiteSpace=wrap;html=1;fillColor=#8b6914;strokeColor=#b8860b;fontColor=#ffffff;" parent="1" vertex="1">
                    <mxGeometry x="500" y="150" width="220" height="100" as="geometry"/>
                </mxCell>
                <mxCell id="analysis-methods" value="Analysis Methods:&#10;Input: ticker_symbol, date_range&#10;Output: stock_data, analysis_results&#10;Description: Retrieves real-time stock data and AI analysis from database" style="rounded=1;whiteSpace=wrap;html=1;fillColor=#8b2d2d;strokeColor=#b84a4a;fontColor=#ffffff;" parent="1" vertex="1">
                    <mxGeometry x="500" y="270" width="220" height="100" as="geometry"/>
                </mxCell>
                <mxCell id="edge1" parent="1" source="services-folder" target="database-service" edge="1">
                    <mxGeometry relative="1" as="geometry"/>
                </mxCell>
                <mxCell id="edge2" parent="1" source="services-folder" target="init-py" edge="1">
                    <mxGeometry relative="1" as="geometry"/>
                </mxCell>
                <mxCell id="edge3" parent="1" source="database-service" target="user-methods" edge="1">
                    <mxGeometry relative="1" as="geometry"/>
                </mxCell>
                <mxCell id="edge4" parent="1" source="database-service" target="analysis-methods" edge="1">
                    <mxGeometry relative="1" as="geometry"/>
                </mxCell>
            </root>
        </mxGraphModel>
    </diagram>
    <diagram name="Handlers Structure" id="handlers-structure">
        <mxGraphModel grid="1" page="1" gridSize="10" guides="1" tooltips="1" connect="1" arrows="1" fold="1" pageScale="1" pageWidth="1169" pageHeight="827" math="0" shadow="0">
            <root>
                <mxCell id="0"/>
                <mxCell id="1" parent="0"/>
                <mxCell id="handlers-folder" value="📁 handlers/" style="rounded=1;whiteSpace=wrap;html=1;fillColor=#2d4a6b;strokeColor=#4a6b8e;fontColor=#ffffff;" parent="1" vertex="1">
                    <mxGeometry x="500" y="50" width="150" height="60" as="geometry"/>
                </mxCell>
                <mxCell id="auth-handler" value="auth_handler.py&#10;Input: telegram_update, user_credentials&#10;Output: authentication_status, user_record&#10;Description: Handles user registration and authentication flow" style="rounded=1;whiteSpace=wrap;html=1;fillColor=#4a2d5a;strokeColor=#6b4e7a;fontColor=#ffffff;" parent="1" vertex="1">
                    <mxGeometry x="100" y="150" width="220" height="100" as="geometry"/>
                </mxCell>
                <mxCell id="menu-handler" value="menu_handler.py&#10;Input: callback_query, user_selection&#10;Output: interactive_buttons, menu_navigation&#10;Description: Manages main menu and button-based navigation" style="rounded=1;whiteSpace=wrap;html=1;fillColor=#2d4a6b;strokeColor=#4a6b8e;fontColor=#ffffff;" parent="1" vertex="1">
                    <mxGeometry x="350" y="150" width="220" height="100" as="geometry"/>
                </mxCell>
                <mxCell id="analysis-handler" value="analysis_handler.py&#10;Input: ticker_symbol, analysis_type&#10;Output: formatted_analysis, technical_indicators&#10;Description: Performs stock analysis and formats results for display" style="rounded=1;whiteSpace=wrap;html=1;fillColor=#8b2d2d;strokeColor=#b84a4a;fontColor=#ffffff;" parent="1" vertex="1">
                    <mxGeometry x="600" y="150" width="220" height="100" as="geometry"/>
                </mxCell>
                <mxCell id="settings-handler" value="settings_handler.py&#10;Input: user_preferences, settings_changes&#10;Output: updated_settings, confirmation&#10;Description: Manages user settings and portfolio configuration" style="rounded=1;whiteSpace=wrap;html=1;fillColor=#8b5a2d;strokeColor=#b87a4a;fontColor=#ffffff;" parent="1" vertex="1">
                    <mxGeometry x="100" y="320" width="220" height="100" as="geometry"/>
                </mxCell>
                <mxCell id="payment-handler" value="payment_handler.py&#10;Input: payment_selection, plan_choice&#10;Output: payment_status, plan_upgrade&#10;Description: Handles subscription plans and payment processing" style="rounded=1;whiteSpace=wrap;html=1;fillColor=#2d5016;strokeColor=#4a7c59;fontColor=#ffffff;" parent="1" vertex="1">
                    <mxGeometry x="350" y="320" width="220" height="100" as="geometry"/>
                </mxCell>
                <mxCell id="init-py" value="__init__.py&#10;Package marker" style="rounded=1;whiteSpace=wrap;html=1;fillColor=#404040;strokeColor=#666666;fontColor=#ffffff;" parent="1" vertex="1">
                    <mxGeometry x="600" y="320" width="200" height="120" as="geometry"/>
                </mxCell>
                <mxCell id="edge1" parent="1" source="handlers-folder" target="auth-handler" edge="1">
                    <mxGeometry relative="1" as="geometry"/>
                </mxCell>
                <mxCell id="edge2" parent="1" source="handlers-folder" target="menu-handler" edge="1">
                    <mxGeometry relative="1" as="geometry"/>
                </mxCell>
                <mxCell id="edge3" parent="1" source="handlers-folder" target="analysis-handler" edge="1">
                    <mxGeometry relative="1" as="geometry"/>
                </mxCell>
                <mxCell id="edge4" parent="1" source="handlers-folder" target="settings-handler" edge="1">
                    <mxGeometry relative="1" as="geometry"/>
                </mxCell>
                <mxCell id="edge5" parent="1" source="handlers-folder" target="payment-handler" edge="1">
                    <mxGeometry relative="1" as="geometry"/>
                </mxCell>
                <mxCell id="edge6" parent="1" source="handlers-folder" target="init-py" edge="1">
                    <mxGeometry relative="1" as="geometry"/>
                </mxCell>
            </root>
        </mxGraphModel>
    </diagram>
    <diagram name="Utils Structure" id="utils-structure">
        <mxGraphModel grid="1" page="1" gridSize="10" guides="1" tooltips="1" connect="1" arrows="1" fold="1" pageScale="1" pageWidth="1169" pageHeight="827" math="0" shadow="0">
            <root>
                <mxCell id="0"/>
                <mxCell id="1" parent="0"/>
                <mxCell id="utils-folder" value="📁 utils/" style="rounded=1;whiteSpace=wrap;html=1;fillColor=#2d4a6b;strokeColor=#4a6b8e;fontColor=#ffffff;" parent="1" vertex="1">
                    <mxGeometry x="500" y="50" width="150" height="60" as="geometry"/>
                </mxCell>
                <mxCell id="validators-py" value="validators.py&#10;Input: user_input, data_fields&#10;Output: validation_result, sanitized_data&#10;Description: Validates and sanitizes all user inputs and data" style="rounded=1;whiteSpace=wrap;html=1;fillColor=#8b6914;strokeColor=#b8860b;fontColor=#ffffff;" parent="1" vertex="1">
                    <mxGeometry x="200" y="150" width="250" height="100" as="geometry"/>
                </mxCell>
                <mxCell id="decorators-py" value="decorators.py&#10;Input: function, context_data&#10;Output: decorated_function, cross_cutting_concerns&#10;Description: Provides reusable decorators for logging, auth, and error handling" style="rounded=1;whiteSpace=wrap;html=1;fillColor=#4a2d5a;strokeColor=#6b4e7a;fontColor=#ffffff;" parent="1" vertex="1">
                    <mxGeometry x="500" y="150" width="250" height="100" as="geometry"/>
                </mxCell>
                <mxCell id="init-py" value="__init__.py&#10;Package marker" style="rounded=1;whiteSpace=wrap;html=1;fillColor=#404040;strokeColor=#666666;fontColor=#ffffff;" parent="1" vertex="1">
                    <mxGeometry x="500" y="320" width="150" height="60" as="geometry"/>
                </mxCell>
                <mxCell id="edge1" parent="1" source="utils-folder" target="validators-py" edge="1">
                    <mxGeometry relative="1" as="geometry"/>
                </mxCell>
                <mxCell id="edge2" parent="1" source="utils-folder" target="decorators-py" edge="1">
                    <mxGeometry relative="1" as="geometry"/>
                </mxCell>
                <mxCell id="edge3" parent="1" source="utils-folder" target="init-py" edge="1">
                    <mxGeometry relative="1" as="geometry"/>
                </mxCell>
            </root>
        </mxGraphModel>
    </diagram>
    <diagram name="Database Schema" id="database-schema">
        <mxGraphModel dx="1809" dy="913" grid="1" gridSize="10" guides="1" tooltips="1" connect="1" arrows="1" fold="1" page="1" pageScale="1" pageWidth="1169" pageHeight="827" math="0" shadow="0">
            <root>
                <mxCell id="0"/>
                <mxCell id="1" parent="0"/>
                <mxCell id="users-table" value="fact_users_data_table&#10;Input: user_registration_data&#10;Output: user_profile_records&#10;Description: Stores user profiles, plans, and preferences" style="rounded=1;whiteSpace=wrap;html=1;fillColor=#2d4a6b;strokeColor=#4a6b8e;fontColor=#ffffff;" parent="1" vertex="1">
                    <mxGeometry x="100" y="100" width="220" height="100" as="geometry"/>
                </mxCell>
                <mxCell id="products-table" value="fact_prodacts_available&#10;Input: product_configuration&#10;Output: available_products_list&#10;Description: Manages subscription plans and product offerings" style="rounded=1;whiteSpace=wrap;html=1;fillColor=#8b6914;strokeColor=#b8860b;fontColor=#ffffff;" parent="1" vertex="1">
                    <mxGeometry x="350" y="100" width="220" height="100" as="geometry"/>
                </mxCell>
                <mxCell id="actions-table" value="fact_telegram_bot_actions&#10;Input: user_interaction_events&#10;Output: analytics_data, user_behavior&#10;Description: Tracks user interactions and bot usage analytics" style="rounded=1;whiteSpace=wrap;html=1;fillColor=#4a2d5a;strokeColor=#6b4e7a;fontColor=#ffffff;" parent="1" vertex="1">
                    <mxGeometry x="600" y="100" width="220" height="100" as="geometry"/>
                </mxCell>
                <mxCell id="ticker-data-table" value="fact_ticker_daily_data&#10;Input: market_data_feed&#10;Output: stock_price_history, technical_indicators&#10;Description: Stores daily stock prices and calculated technical indicators" style="rounded=1;whiteSpace=wrap;html=1;fillColor=#8b2d2d;strokeColor=#b84a4a;fontColor=#ffffff;" parent="1" vertex="1">
                    <mxGeometry x="100" y="300" width="220" height="100" as="geometry"/>
                </mxCell>
                <mxCell id="ai-analysis-table" value="self_ai_analysis_ticker&#10;Input: ticker_symbol, analysis_request&#10;Output: ai_analysis_results, grades&#10;Description: Stores AI-generated stock analysis and ratings" style="rounded=1;whiteSpace=wrap;html=1;fillColor=#8b5a2d;strokeColor=#b87a4a;fontColor=#ffffff;" parent="1" vertex="1">
                    <mxGeometry x="350" y="300" width="220" height="100" as="geometry"/>
                </mxCell>
                <mxCell id="rel1" parent="1" source="users-table" target="actions-table" edge="1">
                    <mxGeometry relative="1" as="geometry"/>
                </mxCell>
                <mxCell id="rel2" parent="1" source="users-table" target="products-table" edge="1">
                    <mxGeometry relative="1" as="geometry"/>
                </mxCell>
                <mxCell id="rel3" parent="1" source="ticker-data-table" target="ai-analysis-table" edge="1">
                    <mxGeometry relative="1" as="geometry"/>
                </mxCell>
            </root>
        </mxGraphModel>
    </diagram>
    <diagram name="Button Flow" id="button-flow">
        <mxGraphModel grid="1" page="1" gridSize="10" guides="1" tooltips="1" connect="1" arrows="1" fold="1" pageScale="1" pageWidth="1169" pageHeight="827" math="0" shadow="0">
            <root>
                <mxCell id="0"/>
                <mxCell id="1" parent="0"/>
                <mxCell id="start" value="🚀 User Starts Bot&#10;Input: /start command&#10;Output: welcome_message + auth_check&#10;Description: Entry point for new users" style="ellipse;whiteSpace=wrap;html=1;fillColor=#2d5016;strokeColor=#4a7c59;fontColor=#ffffff;" parent="1" vertex="1">
                    <mxGeometry x="500" y="50" width="200" height="100" as="geometry"/>
                </mxCell>
                <mxCell id="main-menu" value="📱 Main Menu Buttons&#10;Input: user_selection&#10;Output: interactive_buttons&#10;Description: Displays main menu with analysis options" style="rounded=1;whiteSpace=wrap;html=1;fillColor=#2d4a6b;strokeColor=#4a6b8e;fontColor=#ffffff;" parent="1" vertex="1">
                    <mxGeometry x="450" y="180" width="220" height="100" as="geometry"/>
                </mxCell>
                <mxCell id="ticker-selection" value="📈 Ticker Selection&#10;Input: saved_tickers_list&#10;Output: ticker_buttons + add_new&#10;Description: Shows user's saved tickers as buttons" style="rounded=1;whiteSpace=wrap;html=1;fillColor=#8b2d2d;strokeColor=#b84a4a;fontColor=#ffffff;" parent="1" vertex="1">
                    <mxGeometry x="200" y="320" width="220" height="100" as="geometry"/>
                </mxCell>
                <mxCell id="settings-menu" value="⚙️ Settings Menu&#10;Input: settings_options&#10;Output: settings_buttons&#10;Description: Manages user settings and preferences" style="rounded=1;whiteSpace=wrap;html=1;fillColor=#8b5a2d;strokeColor=#b87a4a;fontColor=#ffffff;" parent="1" vertex="1">
                    <mxGeometry x="750" y="320" width="220" height="100" as="geometry"/>
                </mxCell>
                <mxCell id="payment-menu" value="💳 Payment Menu&#10;Input: current_plan_info&#10;Output: payment_options&#10;Description: Handles subscription and payment options" style="rounded=1;whiteSpace=wrap;html=1;fillColor=#2d5016;strokeColor=#4a7c59;fontColor=#ffffff;" parent="1" vertex="1">
                    <mxGeometry x="450" y="460" width="220" height="100" as="geometry"/>
                </mxCell>
                <mxCell id="analysis-result" value="📊 Analysis Result&#10;Input: ticker_symbol&#10;Output: formatted_analysis&#10;Description: Displays stock analysis with real-time data" style="rounded=1;whiteSpace=wrap;html=1;fillColor=#4a2d5a;strokeColor=#6b4e7a;fontColor=#ffffff;" parent="1" vertex="1">
                    <mxGeometry x="200" y="600" width="220" height="100" as="geometry"/>
                </mxCell>
                <mxCell id="edge1" parent="1" source="start" target="main-menu" edge="1">
                    <mxGeometry relative="1" as="geometry"/>
                </mxCell>
                <mxCell id="edge2" parent="1" source="main-menu" target="ticker-selection" edge="1">
                    <mxGeometry relative="1" as="geometry"/>
                </mxCell>
                <mxCell id="edge3" parent="1" source="main-menu" target="settings-menu" edge="1">
                    <mxGeometry relative="1" as="geometry"/>
                </mxCell>
                <mxCell id="edge4" parent="1" source="main-menu" target="payment-menu" edge="1">
                    <mxGeometry relative="1" as="geometry"/>
                </mxCell>
                <mxCell id="edge5" parent="1" source="ticker-selection" target="analysis-result" edge="1">
                    <mxGeometry relative="1" as="geometry"/>
                </mxCell>
            </root>
        </mxGraphModel>
    </diagram>
    <diagram name="File Structure" id="file-structure">
        <mxGraphModel grid="1" page="1" gridSize="10" guides="1" tooltips="1" connect="1" arrows="1" fold="1" pageScale="1" pageWidth="1169" pageHeight="827" math="0" shadow="0">
            <root>
                <mxCell id="0"/>
                <mxCell id="1" parent="0"/>
                <mxCell id="telegram-bot" value="📁 telegram_bot/" style="rounded=1;whiteSpace=wrap;html=1;fillColor=#2d4a6b;strokeColor=#4a6b8e;fontColor=#ffffff;" parent="1" vertex="1">
                    <mxGeometry x="500" y="50" width="150" height="60" as="geometry"/>
                </mxCell>
                <mxCell id="main-py" value="main.py&#10;Input: bot_configuration&#10;Output: running_bot_instance&#10;Description: Main entry point that initializes and runs the bot" style="rounded=1;whiteSpace=wrap;html=1;fillColor=#8b6914;strokeColor=#b8860b;fontColor=#ffffff;" parent="1" vertex="1">
                    <mxGeometry x="500" y="150" width="220" height="100" as="geometry"/>
                </mxCell>
                <mxCell id="config-folder" value="📁 config/&#10;settings.py&#10;messages.py&#10;plans.py" style="rounded=1;whiteSpace=wrap;html=1;fillColor=#4a2d5a;strokeColor=#6b4e7a;fontColor=#ffffff;" parent="1" vertex="1">
                    <mxGeometry x="100" y="300" width="150" height="100" as="geometry"/>
                </mxCell>
                <mxCell id="services-folder" value="📁 services/&#10;database_service.py" style="rounded=1;whiteSpace=wrap;html=1;fillColor=#8b2d2d;strokeColor=#b84a4a;fontColor=#ffffff;" parent="1" vertex="1">
                    <mxGeometry x="300" y="300" width="150" height="100" as="geometry"/>
                </mxCell>
                <mxCell id="handlers-folder" value="📁 handlers/&#10;auth_handler.py&#10;menu_handler.py&#10;analysis_handler.py&#10;settings_handler.py&#10;payment_handler.py" style="rounded=1;whiteSpace=wrap;html=1;fillColor=#8b5a2d;strokeColor=#b87a4a;fontColor=#ffffff;" parent="1" vertex="1">
                    <mxGeometry x="500" y="300" width="150" height="120" as="geometry"/>
                </mxCell>
                <mxCell id="utils-folder" value="📁 utils/&#10;validators.py&#10;decorators.py" style="rounded=1;whiteSpace=wrap;html=1;fillColor=#2d5016;strokeColor=#4a7c59;fontColor=#ffffff;" parent="1" vertex="1">
                    <mxGeometry x="700" y="300" width="150" height="100" as="geometry"/>
                </mxCell>
                <mxCell id="docs" value="📄 README.md&#10;requirements.txt" style="rounded=1;whiteSpace=wrap;html=1;fillColor=#404040;strokeColor=#666666;fontColor=#ffffff;" parent="1" vertex="1">
                    <mxGeometry x="500" y="460" width="150" height="80" as="geometry"/>
                </mxCell>
                <mxCell id="edge1" parent="1" source="telegram-bot" target="main-py" edge="1">
                    <mxGeometry relative="1" as="geometry"/>
                </mxCell>
                <mxCell id="edge2" parent="1" source="telegram-bot" target="config-folder" edge="1">
                    <mxGeometry relative="1" as="geometry"/>
                </mxCell>
                <mxCell id="edge3" parent="1" source="telegram-bot" target="services-folder" edge="1">
                    <mxGeometry relative="1" as="geometry"/>
                </mxCell>
                <mxCell id="edge4" parent="1" source="telegram-bot" target="handlers-folder" edge="1">
                    <mxGeometry relative="1" as="geometry"/>
                </mxCell>
                <mxCell id="edge5" parent="1" source="telegram-bot" target="utils-folder" edge="1">
                    <mxGeometry relative="1" as="geometry"/>
                </mxCell>
                <mxCell id="edge6" parent="1" source="telegram-bot" target="docs" edge="1">
                    <mxGeometry relative="1" as="geometry"/>
                </mxCell>
            </root>
        </mxGraphModel>
    </diagram>
</mxfile>